<svg width="20" height="19" viewBox="0 0 20 19" fill="none" xmlns="http://www.w3.org/2000/svg">
<path d="M9.91136 14.3897L15.0749 11.4796C15.4862 11.2478 15.6231 10.7412 15.3807 10.3479C15.1585 9.98762 14.6946 9.84724 14.3015 10.0054L16.0048 9.0455C16.4895 8.77236 16.6508 8.17533 16.3652 7.71199C16.0795 7.24865 15.4551 7.09447 14.9704 7.36761L15.9993 6.78777C16.4839 6.51463 16.6452 5.9176 16.3596 5.45426C16.074 4.99093 15.4495 4.83674 14.9649 5.10988L13.9361 5.68972C14.4207 5.41658 14.582 4.81954 14.2964 4.35621C14.0108 3.89287 13.3863 3.73869 12.9017 4.01183L6.3656 7.69549L7.71687 5.06576C8.0321 4.45227 7.61087 3.72641 6.89962 3.65752C6.49952 3.61876 6.11261 3.8071 5.90998 4.13924L4.4518 6.90592L3.89208 7.99215C3.09561 9.53785 3.17587 11.384 4.10507 12.8913C5.31056 14.8467 7.91013 15.5176 9.91136 14.3897Z" fill="white"/>
<path d="M11.3408 11.0616C11.099 11.1951 11.0187 11.4948 11.1614 11.7311C11.3042 11.9674 11.616 12.0507 11.8578 11.9172L11.3408 11.0616ZM14.2038 10.0519L14.4623 10.4797L14.4623 10.4797L14.2038 10.0519ZM6.3656 7.69549L5.90929 7.47033L5.1456 8.95657L6.62799 8.12111L6.3656 7.69549ZM9.28603 7.73693C9.04546 7.87251 8.96792 8.17297 9.11283 8.40804C9.25774 8.6431 9.57023 8.72375 9.8108 8.58817L9.28603 7.73693ZM7.71687 5.06576L7.26055 4.8406L7.26055 4.8406L7.71687 5.06576ZM6.89962 3.65752L6.85843 4.1464L6.85843 4.1464L6.89962 3.65752ZM5.90998 4.13924L5.47065 3.88381L5.46288 3.89653L5.45594 3.90971L5.90998 4.13924ZM10.3204 9.41482C10.0798 9.5504 10.0023 9.85087 10.1472 10.0859C10.2921 10.321 10.6046 10.4016 10.8452 10.2661L10.3204 9.41482ZM4.4518 6.90592L3.99774 6.67638L3.99573 6.68028L4.4518 6.90592ZM3.89208 7.99215L4.34815 8.2178L3.89208 7.99215ZM11.8578 11.9172L14.4623 10.4797L13.9453 9.6241L11.3408 11.0616L11.8578 11.9172ZM14.8125 11.054L9.64898 13.9641L10.1737 14.8154L15.3372 11.9053L14.8125 11.054ZM14.9451 10.5934C15.0372 10.7429 14.9922 10.9527 14.8125 11.054L15.3372 11.9053C15.9801 11.543 16.2089 10.7394 15.8163 10.1024L14.9451 10.5934ZM14.4623 10.4797C14.4763 10.4719 14.4905 10.4652 14.5046 10.4596L14.0985 9.55134C14.0463 9.57233 13.9952 9.59658 13.9453 9.6241L14.4623 10.4797ZM14.5046 10.4596C14.6746 10.3911 14.8606 10.4563 14.9451 10.5934L15.8163 10.1024C15.4565 9.51892 14.7146 9.30333 14.0984 9.55135L14.5046 10.4596ZM6.62799 8.12111L13.1641 4.43745L12.6393 3.58621L6.10322 7.26987L6.62799 8.12111ZM13.6737 5.2641L11.3437 6.57725L11.8685 7.4285L14.1984 6.11534L13.6737 5.2641ZM11.3437 6.57725L9.28603 7.73693L9.8108 8.58817L11.8685 7.4285L11.3437 6.57725ZM6.82192 7.92065L8.17318 5.29093L7.26055 4.8406L5.90929 7.47033L6.82192 7.92065ZM6.94081 3.16863C6.34501 3.11092 5.77153 3.39061 5.47065 3.88381L6.34931 4.39468C6.45369 4.22359 6.65403 4.1266 6.85843 4.1464L6.94081 3.16863ZM8.17318 5.29093C8.64633 4.37013 8.01057 3.27225 6.94081 3.16863L6.85843 4.1464C7.21116 4.18057 7.41788 4.53442 7.26055 4.8406L8.17318 5.29093ZM13.8608 4.6017C13.9962 4.82126 13.9268 5.12146 13.6737 5.2641L14.1984 6.11534C14.9146 5.7117 15.1679 4.81783 14.732 4.11072L13.8608 4.6017ZM13.1641 4.43745C13.4172 4.29481 13.7255 4.38214 13.8608 4.6017L14.732 4.11072C14.2961 3.4036 13.3555 3.18256 12.6393 3.58621L13.1641 4.43745ZM14.1984 6.11534L15.2273 5.53551L14.7025 4.68426L13.6737 5.2641L14.1984 6.11534ZM15.7369 6.36215L14.708 6.94199L15.2328 7.79323L16.2616 7.2134L15.7369 6.36215ZM14.708 6.94199L12.3781 8.25515L12.9028 9.10639L15.2328 7.79323L14.708 6.94199ZM15.924 5.69975C16.0594 5.91932 15.99 6.21951 15.7369 6.36215L16.2616 7.2134C16.9778 6.80975 17.2311 5.91588 16.7952 5.20877L15.924 5.69975ZM15.2273 5.53551C15.4804 5.39287 15.7887 5.48019 15.924 5.69975L16.7952 5.20877C16.3593 4.50166 15.4187 4.28062 14.7025 4.68426L15.2273 5.53551ZM10.8452 10.2661L12.9028 9.10639L12.3781 8.25515L10.3204 9.41482L10.8452 10.2661ZM15.7424 8.61988L14.0391 9.57983L14.5639 10.4311L16.2672 9.47113L15.7424 8.61988ZM14.0391 9.57983L12.3836 10.5129L12.9084 11.3641L14.5639 10.4311L14.0391 9.57983ZM15.9296 7.95748C16.0649 8.17704 15.9955 8.47724 15.7424 8.61988L16.2672 9.47113C16.9834 9.06748 17.2367 8.17361 16.8007 7.4665L15.9296 7.95748ZM15.2328 7.79323C15.4859 7.65059 15.7942 7.73792 15.9296 7.95748L16.8007 7.4665C16.3648 6.75939 15.4243 6.53835 14.708 6.94199L15.2328 7.79323ZM5.45594 3.90971L3.99776 6.67639L4.90584 7.13545L6.36402 4.36877L5.45594 3.90971ZM3.99573 6.68028L3.43602 7.76651L4.34815 8.2178L4.90787 7.13156L3.99573 6.68028ZM4.54066 12.6458C3.70081 11.2834 3.62827 9.61485 4.34815 8.2178L3.43602 7.76651C2.56295 9.46085 2.65093 11.4845 3.66949 13.1367L4.54066 12.6458ZM9.64898 13.9641C7.88831 14.9564 5.60123 14.3662 4.54066 12.6458L3.66949 13.1367C5.01989 15.3273 7.93194 16.0788 10.1737 14.8154L9.64898 13.9641Z" fill="#CCCCCC"/>
<path d="M11.7122 16.3472L16.2199 12.6801C16.5835 12.3843 16.6275 11.8626 16.3182 11.515C16.0347 11.1964 15.5524 11.1342 15.1936 11.3546L16.6994 10.1295C17.1279 9.78093 17.1797 9.16629 16.8152 8.75666C16.4507 8.34703 15.8079 8.29753 15.3794 8.64611L16.289 7.90614C16.7174 7.55757 16.7693 6.94292 16.4048 6.5333C16.0402 6.12367 15.3974 6.07417 14.9689 6.42274L14.0594 7.16271C14.4878 6.81414 14.5397 6.19949 14.1752 5.78986C13.8106 5.38024 13.1678 5.33074 12.7393 5.67931L6.96089 10.3803L7.8204 7.56791C8.02092 6.91181 7.47571 6.26578 6.76265 6.31455C6.36153 6.34199 6.01413 6.59098 5.87409 6.95144L4.93381 9.91625L4.58177 11.0634C4.07106 12.7276 4.47558 14.5321 5.65697 15.8597C7.20029 17.5941 9.91131 17.8123 11.7122 16.3472Z" fill="white"/>
<path d="M12.4687 12.8833C12.2529 13.0557 12.2251 13.364 12.4068 13.5718C12.5884 13.7797 12.9106 13.8084 13.1265 13.636L12.4687 12.8833ZM15.1056 11.4163L14.7768 11.04L14.7768 11.04L15.1056 11.4163ZM6.96089 10.3803L6.47056 10.2399L5.9893 11.8146L7.29328 10.7538L6.96089 10.3803ZM9.84793 9.94492C9.63372 10.1192 9.60888 10.4277 9.79245 10.634C9.97602 10.8403 10.2985 10.8662 10.5127 10.692L9.84793 9.94492ZM7.8204 7.56791L7.33007 7.42756L7.33007 7.42756L7.8204 7.56791ZM6.76265 6.31455L6.80265 6.80227L6.80265 6.80227L6.76265 6.31455ZM5.87409 6.95144L5.39517 6.77814L5.38975 6.79211L5.38522 6.80637L5.87409 6.95144ZM11.168 11.4283C10.9537 11.6026 10.9289 11.9111 11.1125 12.1174C11.2961 12.3237 11.6185 12.3496 11.8327 12.1754L11.168 11.4283ZM4.93381 9.91625L4.44493 9.77117L4.44364 9.77538L4.93381 9.91625ZM4.58177 11.0634L5.07195 11.2043L4.58177 11.0634ZM13.1265 13.636L15.4345 11.7927L14.7768 11.04L12.4687 12.8833L13.1265 13.636ZM15.8875 12.3066L11.3798 15.9737L12.0446 16.7208L16.5523 13.0536L15.8875 12.3066ZM15.9303 11.8305C16.0538 11.9693 16.0396 12.1828 15.8875 12.3066L16.5523 13.0536C17.1274 12.5857 17.2012 11.7559 16.706 11.1995L15.9303 11.8305ZM15.4345 11.7927C15.4466 11.783 15.459 11.7744 15.4715 11.7667L14.9157 10.9424C14.8677 10.9719 14.8213 11.0044 14.7768 11.04L15.4345 11.7927ZM15.4715 11.7667C15.6207 11.675 15.8173 11.7035 15.9303 11.8305L16.706 11.1995C16.2521 10.6894 15.4841 10.5934 14.9157 10.9424L15.4715 11.7667ZM7.29328 10.7538L13.0717 6.05284L12.4069 5.30579L6.6285 10.0067L7.29328 10.7538ZM13.727 6.78919L11.6671 8.46499L12.3318 9.21204L14.3917 7.53623L13.727 6.78919ZM11.6671 8.46499L9.84793 9.94492L10.5127 10.692L12.3318 9.21204L11.6671 8.46499ZM7.45122 10.5206L8.31073 7.70826L7.33007 7.42756L6.47056 10.2399L7.45122 10.5206ZM6.72266 5.82683C6.12291 5.86785 5.60436 6.23973 5.39517 6.77814L6.353 7.12473C6.42391 6.94224 6.60014 6.81612 6.80265 6.80227L6.72266 5.82683ZM8.31073 7.70826C8.61133 6.72469 7.79237 5.75367 6.72266 5.82683L6.80265 6.80227C7.15906 6.7779 7.4305 7.09894 7.33007 7.42756L8.31073 7.70826ZM13.7873 6.1054C13.966 6.30617 13.9439 6.61271 13.727 6.78919L14.3917 7.53623C15.0318 7.01557 15.1134 6.09281 14.563 5.47433L13.7873 6.1054ZM13.0717 6.05284C13.2886 5.87635 13.6086 5.90463 13.7873 6.1054L14.563 5.47433C14.0126 4.85584 13.0469 4.78513 12.4069 5.30579L13.0717 6.05284ZM14.3917 7.53623L15.3013 6.79627L14.6365 6.04922L13.727 6.78919L14.3917 7.53623ZM15.9566 7.53262L15.047 8.27258L15.7118 9.01963L16.6213 8.27966L15.9566 7.53262ZM15.047 8.27258L12.9871 9.94839L13.6519 10.6954L15.7118 9.01963L15.047 8.27258ZM16.0169 6.84883C16.1956 7.04961 16.1735 7.35614 15.9566 7.53262L16.6213 8.27966C17.2614 7.759 17.343 6.83624 16.7926 6.21776L16.0169 6.84883ZM15.3013 6.79627C15.5182 6.61979 15.8382 6.64806 16.0169 6.84883L16.7926 6.21776C16.2422 5.59927 15.2765 5.52856 14.6365 6.04922L15.3013 6.79627ZM11.8327 12.1754L13.6519 10.6954L12.9871 9.94839L11.168 11.4283L11.8327 12.1754ZM16.367 9.75598L14.8612 10.981L15.526 11.7281L17.0318 10.503L16.367 9.75598ZM14.8612 10.981L13.3976 12.1717L14.0623 12.9188L15.526 11.7281L14.8612 10.981ZM16.4274 9.0722C16.606 9.27297 16.584 9.5795 16.367 9.75598L17.0318 10.503C17.6718 9.98236 17.7534 9.0596 17.2031 8.44112L16.4274 9.0722ZM15.7118 9.01963C15.9287 8.84315 16.2487 8.87142 16.4274 9.0722L17.2031 8.44112C16.6527 7.82264 15.687 7.75192 15.047 8.27258L15.7118 9.01963ZM5.38522 6.80637L4.44495 9.77118L5.42267 10.0613L6.36295 7.09651L5.38522 6.80637ZM4.44364 9.77538L4.0916 10.9225L5.07195 11.2043L5.42398 10.0571L4.44364 9.77538ZM6.04483 15.5442C4.97586 14.3429 4.60983 12.7101 5.07195 11.2043L4.0916 10.9225C3.53229 12.7451 3.9753 14.7213 5.26911 16.1753L6.04483 15.5442ZM11.3798 15.9737C9.79314 17.2645 7.40458 17.0722 6.04483 15.5442L5.26911 16.1753C6.996 18.1159 10.0295 18.3601 12.0446 16.7208L11.3798 15.9737Z" fill="#CCCCCC"/>
</svg>
